<?xml version="1.0" encoding="utf-8"?>
<!-- Generator: Adobe Illustrator 19.2.1, SVG Export Plug-In . SVG Version: 6.00 Build 0)  -->
<svg version="1.1" id="Layer_2" xmlns="http://www.w3.org/2000/svg" xmlns:xlink="http://www.w3.org/1999/xlink" x="0px" y="0px"
	 viewBox="0 0 134 38" style="enable-background:new 0 0 134 38;" xml:space="preserve">
<style type="text/css">
	.st0{fill:#14BF98;}
	.st1{fill:#FFFFFF;}
</style>
<title>logo</title>
<polygon class="st0" points="5.7,15.7 1.9,15.7 0,19 1.9,22.3 5.7,22.3 7.7,19 "/>
<polygon class="st0" points="10.3,7.8 6.5,7.8 4.6,11.1 6.5,14.4 10.3,14.4 12.2,11.1 "/>
<polygon class="st0" points="14.8,0 11,0 9.1,3.3 11,6.6 14.8,6.6 16.7,3.3 "/>
<polygon class="st0" points="23.9,0 20,0 18.1,3.3 20,6.6 23.9,6.6 25.8,3.3 "/>
<polygon class="st0" points="32.9,0 29.1,0 27.2,3.3 29.1,6.6 32.9,6.6 34.9,3.3 "/>
<polygon class="st0" points="14.5,16.2 11.3,16.2 9.8,18.9 11.3,21.6 14.5,21.6 16,18.9 "/>
<polygon class="st0" points="32.6,16.2 29.5,16.2 27.9,18.9 29.5,21.6 32.6,21.6 34.2,18.9 "/>
<polygon class="st0" points="23.3,16.6 20.6,16.6 19.3,18.9 20.6,21.2 23.3,21.2 24.6,18.9 "/>
<polygon class="st0" points="37.4,7.8 33.6,7.8 31.7,11.1 33.6,14.4 37.4,14.4 39.3,11.1 "/>
<polygon class="st0" points="9.7,25 6.6,25 5,27.7 6.6,30.4 9.7,30.4 11.3,27.7 "/>
<polygon class="st0" points="12.4,34.9 10.6,34.9 9.7,36.5 10.6,38 12.4,38 13.3,36.5 "/>
<polygon class="st0" points="42,15.7 38.2,15.7 36.3,19 38.2,22.3 42,22.3 43.9,19 "/>
<polygon class="st0" points="37.3,25 34.2,25 32.6,27.7 34.2,30.4 37.3,30.4 38.9,27.7 "/>
<polygon class="st0" points="33.3,33.7 30.8,33.7 29.5,35.8 30.8,38 33.3,38 34.5,35.8 "/>

</svg>
